<svg width="16" height="16" viewBox="0 0 16 16" fill="none" xmlns="http://www.w3.org/2000/svg">
<path d="M5.73729 7.99744L11.7646 1.97014C11.9162 1.81848 11.9934 1.63181 11.996 1.41014C11.9987 1.18848 11.9242 1.00174 11.7725 0.849936C11.6208 0.698269 11.4342 0.622436 11.2125 0.622436C10.9908 0.622436 10.8041 0.698269 10.6523 0.849936L4.43917 7.05514C4.3025 7.19195 4.20479 7.33993 4.14604 7.4991C4.08715 7.65827 4.05771 7.82438 4.05771 7.99744C4.05771 8.17049 4.08715 8.3366 4.14604 8.49577C4.20479 8.65494 4.3025 8.80292 4.43917 8.93973L10.6444 15.1449C10.796 15.2966 10.984 15.3738 11.2083 15.3764C11.4328 15.379 11.6208 15.3045 11.7725 15.1529C11.9242 15.0012 12 14.8145 12 14.5929C12 14.3712 11.9242 14.1845 11.7725 14.0326L5.73729 7.99744Z" fill="#545661"/>
</svg>
