<svg width="10" height="20" viewBox="0 0 10 20" fill="none" xmlns="http://www.w3.org/2000/svg">
<path d="M2.11473 9.9974L9.70359 2.40855C9.89455 2.21758 9.99169 1.98256 9.99502 1.70346C9.99834 1.42436 9.90452 1.18925 9.71356 0.998111C9.5226 0.80715 9.28757 0.71167 9.00847 0.71167C8.72938 0.71167 8.49426 0.80715 8.30312 0.99811L0.480288 8.81098C0.308214 8.98323 0.185191 9.16955 0.11122 9.36996C0.0370735 9.57036 1.27555e-06 9.77951 1.23745e-06 9.9974C1.19936e-06 10.2153 0.0370733 10.4244 0.11122 10.6248C0.18519 10.8252 0.308213 11.0116 0.480288 11.1838L8.29315 18.9967C8.48411 19.1877 8.7208 19.2848 9.00322 19.2881C9.28582 19.2914 9.52259 19.1976 9.71356 19.0067C9.90452 18.8157 10 18.5807 10 18.3016C10 18.0225 9.90452 17.7874 9.71356 17.5962L2.11473 9.9974Z" fill="#34353A"/>
</svg>
