<svg width="16" height="16" viewBox="0 0 16 16" fill="none" xmlns="http://www.w3.org/2000/svg">
<path d="M10.2627 8.00147L4.23542 14.0288C4.08375 14.1804 4.0066 14.3671 4.00396 14.5888C4.00132 14.8104 4.07583 14.9972 4.2275 15.149C4.37917 15.3006 4.56583 15.3765 4.7875 15.3765C5.00917 15.3765 5.1959 15.3006 5.34771 15.149L11.5608 8.94376C11.6975 8.80695 11.7952 8.65897 11.854 8.4998C11.9128 8.34063 11.9423 8.17452 11.9423 8.00147C11.9423 7.82841 11.9128 7.6623 11.854 7.50313C11.7952 7.34397 11.6975 7.19598 11.5608 7.05917L5.35563 0.853964C5.20396 0.702297 5.01597 0.625145 4.79167 0.622506C4.56722 0.619867 4.37917 0.694381 4.2275 0.846047C4.07583 0.997714 4 1.18438 4 1.40605C4 1.62771 4.07583 1.81445 4.2275 1.96626L10.2627 8.00147Z" fill="#545661"/>
</svg>
