<svg width="13" height="15" viewBox="0 0 13 15" fill="none" xmlns="http://www.w3.org/2000/svg">
<path d="M9.42536 11.8984C9.09715 11.8911 8.83315 11.6167 8.83315 11.2845C8.82602 10.9523 9.09001 10.6785 9.41822 10.6713H9.42536C9.7607 10.6713 10.0318 10.9458 10.0318 11.2845C10.0318 11.6239 9.7607 11.8984 9.42536 11.8984ZM6.51427 9.24059C6.18606 9.25576 5.91493 8.99504 5.90066 8.66354C5.90066 8.33132 6.15752 8.05687 6.48573 8.0417C6.80681 8.0417 7.0708 8.2952 7.07794 8.61948C7.09221 8.95243 6.83535 9.22687 6.51427 9.24059ZM6.51427 11.8623C6.18606 11.8774 5.91493 11.6167 5.90066 11.2845C5.90066 10.9523 6.15752 10.6785 6.48573 10.6634C6.80681 10.6634 7.0708 10.9169 7.07794 11.2419C7.09221 11.5741 6.83535 11.8485 6.51427 11.8623ZM3.58178 9.24059C3.25357 9.25576 2.98244 8.99504 2.96817 8.66354C2.96817 8.33132 3.22503 8.05687 3.55324 8.0417C3.87431 8.0417 4.13831 8.2952 4.14544 8.61948C4.15971 8.95243 3.90285 9.22687 3.58178 9.24059ZM3.57464 11.8623C3.24643 11.8774 2.9753 11.6167 2.96103 11.2845C2.96103 10.9523 3.21789 10.6785 3.5461 10.6634C3.86718 10.6634 4.13118 10.9169 4.13831 11.2419C4.15258 11.5741 3.89572 11.8485 3.57464 11.8623ZM8.84029 8.65632C8.84029 8.32409 9.09715 8.05687 9.42536 8.04965C9.74643 8.04965 10.0033 8.30893 10.0176 8.62743C10.0247 8.95965 9.76784 9.23409 9.44676 9.24059C9.11855 9.24782 8.84742 8.99504 8.84029 8.66354V8.65632ZM0 5.51898V11.0173C0 13.2995 1.44127 14.7223 3.70307 14.7223H9.28979C11.573 14.7223 13 13.3284 13 11.0613V5.51898H0Z" fill="#7C7E8A"/>
<path d="M9.42536 11.8984C9.09715 11.8911 8.83315 11.6167 8.83315 11.2845C8.82602 10.9523 9.09001 10.6785 9.41822 10.6713H9.42536C9.7607 10.6713 10.0318 10.9458 10.0318 11.2845C10.0318 11.6239 9.7607 11.8984 9.42536 11.8984ZM6.51427 9.24059C6.18606 9.25576 5.91493 8.99504 5.90066 8.66354C5.90066 8.33132 6.15752 8.05687 6.48573 8.0417C6.80681 8.0417 7.0708 8.2952 7.07794 8.61948C7.09221 8.95243 6.83535 9.22687 6.51427 9.24059ZM6.51427 11.8623C6.18606 11.8774 5.91493 11.6167 5.90066 11.2845C5.90066 10.9523 6.15752 10.6785 6.48573 10.6634C6.80681 10.6634 7.0708 10.9169 7.07794 11.2419C7.09221 11.5741 6.83535 11.8485 6.51427 11.8623ZM3.58178 9.24059C3.25357 9.25576 2.98244 8.99504 2.96817 8.66354C2.96817 8.33132 3.22503 8.05687 3.55324 8.0417C3.87431 8.0417 4.13831 8.2952 4.14544 8.61948C4.15971 8.95243 3.90285 9.22687 3.58178 9.24059ZM3.57464 11.8623C3.24643 11.8774 2.9753 11.6167 2.96103 11.2845C2.96103 10.9523 3.21789 10.6785 3.5461 10.6634C3.86718 10.6634 4.13118 10.9169 4.13831 11.2419C4.15258 11.5741 3.89572 11.8485 3.57464 11.8623ZM8.84029 8.65632C8.84029 8.32409 9.09715 8.05687 9.42536 8.04965C9.74643 8.04965 10.0033 8.30893 10.0176 8.62743C10.0247 8.95965 9.76784 9.23409 9.44676 9.24059C9.11855 9.24782 8.84742 8.99504 8.84029 8.66354V8.65632ZM0 5.51898V11.0173C0 13.2995 1.44127 14.7223 3.70307 14.7223H9.28979C11.573 14.7223 13 13.3284 13 11.0613V5.51898H0Z" fill="black" fill-opacity="0.2"/>
<g opacity="0.4">
<path d="M0.00292969 5.51912C0.0122052 5.09518 0.0478803 4.25379 0.114949 3.98295C0.45743 2.45979 1.62044 1.49201 3.2829 1.35406H9.71868C11.3669 1.49923 12.5442 2.47351 12.8866 3.98295C12.953 4.24656 12.9887 5.09445 12.9979 5.51912H0.00292969Z" fill="#7C7E8A"/>
<path d="M0.00292969 5.51912C0.0122052 5.09518 0.0478803 4.25379 0.114949 3.98295C0.45743 2.45979 1.62044 1.49201 3.2829 1.35406H9.71868C11.3669 1.49923 12.5442 2.47351 12.8866 3.98295C12.953 4.24656 12.9887 5.09445 12.9979 5.51912H0.00292969Z" fill="black" fill-opacity="0.2"/>
</g>
<path d="M3.83162 3.59277C4.14556 3.59277 4.38102 3.35516 4.38102 3.03666V0.834604C4.38102 0.516104 4.14556 0.277771 3.83162 0.277771C3.51768 0.277771 3.28223 0.516104 3.28223 0.834604V3.03666C3.28223 3.35516 3.51768 3.59277 3.83162 3.59277Z" fill="#7C7E8A"/>
<path d="M3.83162 3.59277C4.14556 3.59277 4.38102 3.35516 4.38102 3.03666V0.834604C4.38102 0.516104 4.14556 0.277771 3.83162 0.277771C3.51768 0.277771 3.28223 0.516104 3.28223 0.834604V3.03666C3.28223 3.35516 3.51768 3.59277 3.83162 3.59277Z" fill="black" fill-opacity="0.2"/>
<path d="M9.16756 3.59277C9.47437 3.59277 9.71696 3.35516 9.71696 3.03666V0.834604C9.71696 0.516104 9.47437 0.277771 9.16756 0.277771C8.85362 0.277771 8.61816 0.516104 8.61816 0.834604V3.03666C8.61816 3.35516 8.85362 3.59277 9.16756 3.59277Z" fill="#7C7E8A"/>
<path d="M9.16756 3.59277C9.47437 3.59277 9.71696 3.35516 9.71696 3.03666V0.834604C9.71696 0.516104 9.47437 0.277771 9.16756 0.277771C8.85362 0.277771 8.61816 0.516104 8.61816 0.834604V3.03666C8.61816 3.35516 8.85362 3.59277 9.16756 3.59277Z" fill="black" fill-opacity="0.2"/>
</svg>
