<svg width="30" height="31" viewBox="0 0 30 31" fill="none" xmlns="http://www.w3.org/2000/svg">
<path d="M20.0631 23.1125C19.4951 23.1 19.0381 22.625 19.0381 22.05C19.0258 21.475 19.4827 21.0013 20.0508 20.9888H20.0631C20.6435 20.9888 21.1128 21.4638 21.1128 22.05C21.1128 22.6375 20.6435 23.1125 20.0631 23.1125ZM15.0247 18.5125C14.4566 18.5388 13.9874 18.0875 13.9627 17.5138C13.9627 16.9388 14.4072 16.4638 14.9753 16.4375C15.531 16.4375 15.9879 16.8763 16.0003 17.4375C16.025 18.0138 15.5804 18.4888 15.0247 18.5125ZM15.0247 23.05C14.4566 23.0763 13.9874 22.625 13.9627 22.05C13.9627 21.475 14.4072 21.0013 14.9753 20.975C15.531 20.975 15.9879 21.4138 16.0003 21.9763C16.025 22.5513 15.5804 23.0263 15.0247 23.05ZM9.94923 18.5125C9.38117 18.5388 8.91191 18.0875 8.88721 17.5138C8.88721 16.9388 9.33178 16.4638 9.89984 16.4375C10.4555 16.4375 10.9125 16.8763 10.9248 17.4375C10.9495 18.0138 10.5049 18.4888 9.94923 18.5125ZM9.93688 23.05C9.36882 23.0763 8.89956 22.625 8.87486 22.05C8.87486 21.475 9.31943 21.0013 9.88749 20.975C10.4432 20.975 10.9001 21.4138 10.9125 21.9763C10.9372 22.5513 10.4926 23.0263 9.93688 23.05ZM19.0505 17.5013C19.0505 16.9263 19.4951 16.4638 20.0631 16.4513C20.6188 16.4513 21.0634 16.9 21.0881 17.4513C21.1004 18.0263 20.6559 18.5013 20.1002 18.5125C19.5321 18.525 19.0628 18.0875 19.0505 17.5138V17.5013ZM3.75 12.0713V21.5875C3.75 25.5375 6.24451 28 10.1592 28H19.8285C23.7802 28 26.25 25.5875 26.25 21.6638V12.0713H3.75Z" fill="#7C7E8A"/>
<path d="M20.0631 23.1125C19.4951 23.1 19.0381 22.625 19.0381 22.05C19.0258 21.475 19.4827 21.0013 20.0508 20.9888H20.0631C20.6435 20.9888 21.1128 21.4638 21.1128 22.05C21.1128 22.6375 20.6435 23.1125 20.0631 23.1125ZM15.0247 18.5125C14.4566 18.5388 13.9874 18.0875 13.9627 17.5138C13.9627 16.9388 14.4072 16.4638 14.9753 16.4375C15.531 16.4375 15.9879 16.8763 16.0003 17.4375C16.025 18.0138 15.5804 18.4888 15.0247 18.5125ZM15.0247 23.05C14.4566 23.0763 13.9874 22.625 13.9627 22.05C13.9627 21.475 14.4072 21.0013 14.9753 20.975C15.531 20.975 15.9879 21.4138 16.0003 21.9763C16.025 22.5513 15.5804 23.0263 15.0247 23.05ZM9.94923 18.5125C9.38117 18.5388 8.91191 18.0875 8.88721 17.5138C8.88721 16.9388 9.33178 16.4638 9.89984 16.4375C10.4555 16.4375 10.9125 16.8763 10.9248 17.4375C10.9495 18.0138 10.5049 18.4888 9.94923 18.5125ZM9.93688 23.05C9.36882 23.0763 8.89956 22.625 8.87486 22.05C8.87486 21.475 9.31943 21.0013 9.88749 20.975C10.4432 20.975 10.9001 21.4138 10.9125 21.9763C10.9372 22.5513 10.4926 23.0263 9.93688 23.05ZM19.0505 17.5013C19.0505 16.9263 19.4951 16.4638 20.0631 16.4513C20.6188 16.4513 21.0634 16.9 21.0881 17.4513C21.1004 18.0263 20.6559 18.5013 20.1002 18.5125C19.5321 18.525 19.0628 18.0875 19.0505 17.5138V17.5013ZM3.75 12.0713V21.5875C3.75 25.5375 6.24451 28 10.1592 28H19.8285C23.7802 28 26.25 25.5875 26.25 21.6638V12.0713H3.75Z" fill="black" fill-opacity="0.2"/>
<g opacity="0.4">
<path d="M3.75439 12.0712C3.77045 11.3374 3.83219 9.88118 3.94827 9.41243C4.54103 6.77618 6.55393 5.10118 9.43126 4.86243H20.5701C23.4228 5.11368 25.4604 6.79993 26.0531 9.41243C26.168 9.86868 26.2297 11.3362 26.2458 12.0712H3.75439Z" fill="#7C7E8A"/>
<path d="M3.75439 12.0712C3.77045 11.3374 3.83219 9.88118 3.94827 9.41243C4.54103 6.77618 6.55393 5.10118 9.43126 4.86243H20.5701C23.4228 5.11368 25.4604 6.79993 26.0531 9.41243C26.168 9.86868 26.2297 11.3362 26.2458 12.0712H3.75439Z" fill="black" fill-opacity="0.2"/>
</g>
<path d="M10.3811 8.7375C10.9244 8.7375 11.3319 8.32625 11.3319 7.775V3.96375C11.3319 3.4125 10.9244 3 10.3811 3C9.8377 3 9.43018 3.4125 9.43018 3.96375V7.775C9.43018 8.32625 9.8377 8.7375 10.3811 8.7375Z" fill="#7C7E8A"/>
<path d="M10.3811 8.7375C10.9244 8.7375 11.3319 8.32625 11.3319 7.775V3.96375C11.3319 3.4125 10.9244 3 10.3811 3C9.8377 3 9.43018 3.4125 9.43018 3.96375V7.775C9.43018 8.32625 9.8377 8.7375 10.3811 8.7375Z" fill="black" fill-opacity="0.2"/>
<path d="M19.6188 8.7375C20.1499 8.7375 20.5697 8.32625 20.5697 7.775V3.96375C20.5697 3.4125 20.1499 3 19.6188 3C19.0755 3 18.668 3.4125 18.668 3.96375V7.775C18.668 8.32625 19.0755 8.7375 19.6188 8.7375Z" fill="#7C7E8A"/>
<path d="M19.6188 8.7375C20.1499 8.7375 20.5697 8.32625 20.5697 7.775V3.96375C20.5697 3.4125 20.1499 3 19.6188 3C19.0755 3 18.668 3.4125 18.668 3.96375V7.775C18.668 8.32625 19.0755 8.7375 19.6188 8.7375Z" fill="black" fill-opacity="0.2"/>
</svg>
