<svg width="26" height="26" viewBox="0 0 26 26" fill="none" xmlns="http://www.w3.org/2000/svg">
<path d="M11.2973 2.7634C12.0784 1.49562 13.9216 1.49562 14.7027 2.7634L15.1442 3.47987C15.6308 4.26958 16.5965 4.62108 17.4769 4.3289L18.2756 4.06382C19.6889 3.59477 21.1008 4.7795 20.8843 6.2528L20.762 7.08542C20.6271 8.00315 21.141 8.89316 22.0032 9.23524L22.7854 9.54558C24.1696 10.0947 24.4896 11.9098 23.3768 12.8993L22.7478 13.4585C22.0546 14.0748 21.8762 15.0869 22.3168 15.9031L22.7165 16.6437C23.4239 17.9541 22.5023 19.5503 21.0138 19.5929L20.1726 19.617C19.2454 19.6435 18.4581 20.3041 18.271 21.2126L18.1012 22.0369C17.8007 23.4954 16.0688 24.1258 14.9011 23.2016L14.2412 22.6793C13.5139 22.1037 12.4861 22.1037 11.7588 22.6793L11.0989 23.2016C9.93124 24.1258 8.19929 23.4954 7.89884 22.0369L7.72905 21.2126C7.54189 20.3041 6.75463 19.6435 5.82742 19.617L4.9862 19.5929C3.49769 19.5503 2.57614 17.9541 3.28348 16.6437L3.68323 15.9031C4.12385 15.0869 3.94539 14.0748 3.25217 13.4585L2.62324 12.8993C1.51037 11.9098 1.83042 10.0947 3.21459 9.54558L3.99684 9.23523C4.85905 8.89316 5.3729 8.00315 5.23804 7.08541L5.11568 6.2528C4.89918 4.77949 6.31108 3.59477 7.7244 4.06382L8.52312 4.3289C9.40349 4.62108 10.3692 4.26958 10.8558 3.47987L11.2973 2.7634Z" fill="#6907FF"/>
<path d="M8 12.3077L11.8095 16L18 10" stroke="white" stroke-width="2" stroke-linecap="round"/>
</svg>
