<svg width="26" height="26" viewBox="0 0 26 26" fill="none" xmlns="http://www.w3.org/2000/svg">
<path d="M13 14.236L2.02173 25.2143C1.8576 25.3784 1.65809 25.467 1.42319 25.48C1.18829 25.4933 0.975785 25.4048 0.785677 25.2143C0.595226 25.0242 0.5 24.8182 0.5 24.5963C0.5 24.3747 0.595226 24.1687 0.785677 23.9783L11.764 13L0.785677 2.02172C0.621554 1.8576 0.532995 1.65809 0.520002 1.42319C0.506667 1.18829 0.595226 0.975782 0.785677 0.785673C0.975785 0.595223 1.18179 0.5 1.4037 0.5C1.62527 0.5 1.83128 0.595223 2.02173 0.785673L13 11.7639L23.9783 0.785673C24.1424 0.621551 24.3419 0.532993 24.5768 0.52C24.8117 0.506665 25.0242 0.595223 25.2143 0.785673C25.4048 0.975782 25.5 1.18179 25.5 1.4037C25.5 1.62527 25.4048 1.83127 25.2143 2.02172L14.2361 13L25.2143 23.9783C25.3784 24.1424 25.467 24.3419 25.48 24.5768C25.4933 24.8117 25.4048 25.0242 25.2143 25.2143C25.0242 25.4048 24.8182 25.5 24.5963 25.5C24.3747 25.5 24.1687 25.4048 23.9783 25.2143L13 14.236Z" fill="black"/>
</svg>
