<svg width="30" height="31" viewBox="0 0 30 31" fill="none" xmlns="http://www.w3.org/2000/svg">
<g clip-path="url(#clip0_411_753)">
<path d="M23.7 5.30005H5.3C4.035 5.30005 3.0115 6.33505 3.0115 7.60005L3 21.4C3 22.665 4.035 23.7 5.3 23.7H23.7C24.965 23.7 26 22.665 26 21.4V7.60005C26 6.33505 24.965 5.30005 23.7 5.30005ZM23.7 9.90005L14.5 15.65L5.3 9.90005V7.60005L14.5 13.35L23.7 7.60005V9.90005Z" fill="#7C7E8A"/>
<path d="M23.7 5.30005H5.3C4.035 5.30005 3.0115 6.33505 3.0115 7.60005L3 21.4C3 22.665 4.035 23.7 5.3 23.7H23.7C24.965 23.7 26 22.665 26 21.4V7.60005C26 6.33505 24.965 5.30005 23.7 5.30005ZM23.7 9.90005L14.5 15.65L5.3 9.90005V7.60005L14.5 13.35L23.7 7.60005V9.90005Z" fill="black" fill-opacity="0.2"/>
</g>
<defs>
<clipPath id="clip0_411_753">
<rect width="30" height="30" fill="white" transform="translate(0 0.5)"/>
</clipPath>
</defs>
</svg>
