<svg width="25" height="26" viewBox="0 0 25 26" fill="none" xmlns="http://www.w3.org/2000/svg">
<path fill-rule="evenodd" clip-rule="evenodd" d="M24.3193 17.7586C23.5589 15.3774 21.5432 14.0149 18.7776 14.0149H18.7578C17.6307 14.0045 16.6234 14.2315 15.7734 14.6659C18.1453 15.4274 19.9036 17.117 20.713 19.5076C21.9974 19.3295 23.1141 18.9347 24.1016 18.3315L24.4276 18.1242L24.3193 17.7586Z" fill="#7C7E8A"/>
<path fill-rule="evenodd" clip-rule="evenodd" d="M16.9697 12.2164C17.5031 12.5133 18.1062 12.681 18.7583 12.681C20.8031 12.681 22.4624 11.0206 22.4624 8.9758C22.4624 6.94142 20.8031 5.28101 18.7583 5.28101C18.3531 5.28101 17.9676 5.3508 17.602 5.46851C18.1354 6.32892 18.4416 7.34559 18.4416 8.42267C18.4416 9.88517 17.8979 11.2092 16.9697 12.2164Z" fill="#7C7E8A"/>
<path fill-rule="evenodd" clip-rule="evenodd" d="M9.69798 14.6468C8.86777 14.2322 7.88965 14.0145 6.7834 14.0145H6.74382C3.97819 14.0145 1.96257 15.3781 1.21152 17.7583L1.09277 18.1239L1.41882 18.3312C2.35736 18.9052 3.46465 19.2895 4.69902 19.4874C5.51882 17.0874 7.30736 15.3874 9.69798 14.6468Z" fill="#7C7E8A"/>
<path fill-rule="evenodd" clip-rule="evenodd" d="M6.7638 12.6808C7.41589 12.6808 8.01797 12.5131 8.55234 12.2162C7.62318 11.2089 7.07943 9.88493 7.07943 8.42243C7.07943 7.34639 7.38568 6.32868 7.92005 5.4693C7.55443 5.35055 7.16901 5.28076 6.7638 5.28076C4.71901 5.28076 3.05859 6.94118 3.05859 8.97555C3.05859 11.0214 4.71901 12.6808 6.7638 12.6808Z" fill="#7C7E8A"/>
<path fill-rule="evenodd" clip-rule="evenodd" d="M12.7254 15.1904C12.7087 15.1904 12.6931 15.1904 12.6775 15.1904C9.12122 15.1904 6.52852 16.9383 5.56393 19.9894L5.44727 20.3581L5.77747 20.5602C7.66081 21.7081 9.91081 22.2665 12.6556 22.2665H12.7441C15.491 22.2665 17.7421 21.7081 19.6254 20.5602L19.9566 20.3581L19.84 19.9894C18.8743 16.9383 16.2827 15.1904 12.7254 15.1904Z" fill="#7C7E8A"/>
<path fill-rule="evenodd" clip-rule="evenodd" d="M12.7603 13.1229C15.3499 13.1229 17.4561 11.0167 17.4561 8.42709C17.4561 5.83855 15.3499 3.7323 12.7603 3.7323C10.1707 3.7323 8.06445 5.83855 8.06445 8.42709C8.06445 11.0167 10.1707 13.1229 12.7603 13.1229Z" fill="#7C7E8A"/>
</svg>
