<svg width="30" height="31" viewBox="0 0 30 31" fill="none" xmlns="http://www.w3.org/2000/svg">
<path d="M26.3053 21.5172C25.9667 21.5172 25.6832 21.4017 25.4546 21.1706C25.2252 20.9403 25.1105 20.6547 25.1105 20.3138V13.2135L15.5227 18.4785C15.3435 18.5788 15.1591 18.6538 14.9695 18.7036C14.7808 18.7541 14.5769 18.7794 14.3578 18.7794C14.1388 18.7794 13.9349 18.7541 13.7461 18.7036C13.5566 18.6538 13.3722 18.5788 13.193 18.4785L3.12724 12.9427C2.92812 12.8424 2.77399 12.6968 2.66487 12.5058C2.55496 12.3157 2.5 12.1103 2.5 11.8897C2.5 11.6691 2.55496 11.4637 2.66487 11.2735C2.77399 11.0826 2.92812 10.937 3.12724 10.8367L13.2228 5.30086C13.402 5.20057 13.586 5.12516 13.7748 5.07461C13.9644 5.02487 14.1587 5 14.3578 5C14.5569 5 14.7513 5.02487 14.9409 5.07461C15.1296 5.12516 15.3136 5.20057 15.4928 5.30086L26.8728 11.5587C27.0719 11.659 27.2264 11.8042 27.3363 11.9944C27.4454 12.1853 27.5 12.3911 27.5 12.6117V20.3138C27.5 20.6547 27.3853 20.9403 27.1559 21.1706C26.9273 21.4017 26.6438 21.5172 26.3053 21.5172ZM14.3578 26C14.1587 26 13.9644 25.9751 13.7748 25.9254C13.586 25.8748 13.402 25.7994 13.2228 25.6991L7.2491 22.4499C6.85086 22.2292 6.54221 21.9336 6.32318 21.5629C6.10414 21.1915 5.99462 20.7751 5.99462 20.3138V15.7407L12.7748 19.4413C13.0337 19.5817 13.2925 19.7068 13.5514 19.8167C13.8102 19.9275 14.0791 19.9828 14.3578 19.9828C14.6366 19.9828 14.9106 19.9226 15.1798 19.8023C15.4482 19.6819 15.7119 19.5516 15.9707 19.4112L22.721 15.7407V20.3138C22.721 20.7751 22.6115 21.1915 22.3925 21.5629C22.1734 21.9336 21.8648 22.2292 21.4665 22.4499L15.4928 25.6991C15.3136 25.7994 15.1296 25.8748 14.9409 25.9254C14.7513 25.9751 14.5569 26 14.3578 26Z" fill="#7C7E8A"/>
<path d="M26.3053 21.5172C25.9667 21.5172 25.6832 21.4017 25.4546 21.1706C25.2252 20.9403 25.1105 20.6547 25.1105 20.3138V13.2135L15.5227 18.4785C15.3435 18.5788 15.1591 18.6538 14.9695 18.7036C14.7808 18.7541 14.5769 18.7794 14.3578 18.7794C14.1388 18.7794 13.9349 18.7541 13.7461 18.7036C13.5566 18.6538 13.3722 18.5788 13.193 18.4785L3.12724 12.9427C2.92812 12.8424 2.77399 12.6968 2.66487 12.5058C2.55496 12.3157 2.5 12.1103 2.5 11.8897C2.5 11.6691 2.55496 11.4637 2.66487 11.2735C2.77399 11.0826 2.92812 10.937 3.12724 10.8367L13.2228 5.30086C13.402 5.20057 13.586 5.12516 13.7748 5.07461C13.9644 5.02487 14.1587 5 14.3578 5C14.5569 5 14.7513 5.02487 14.9409 5.07461C15.1296 5.12516 15.3136 5.20057 15.4928 5.30086L26.8728 11.5587C27.0719 11.659 27.2264 11.8042 27.3363 11.9944C27.4454 12.1853 27.5 12.3911 27.5 12.6117V20.3138C27.5 20.6547 27.3853 20.9403 27.1559 21.1706C26.9273 21.4017 26.6438 21.5172 26.3053 21.5172ZM14.3578 26C14.1587 26 13.9644 25.9751 13.7748 25.9254C13.586 25.8748 13.402 25.7994 13.2228 25.6991L7.2491 22.4499C6.85086 22.2292 6.54221 21.9336 6.32318 21.5629C6.10414 21.1915 5.99462 20.7751 5.99462 20.3138V15.7407L12.7748 19.4413C13.0337 19.5817 13.2925 19.7068 13.5514 19.8167C13.8102 19.9275 14.0791 19.9828 14.3578 19.9828C14.6366 19.9828 14.9106 19.9226 15.1798 19.8023C15.4482 19.6819 15.7119 19.5516 15.9707 19.4112L22.721 15.7407V20.3138C22.721 20.7751 22.6115 21.1915 22.3925 21.5629C22.1734 21.9336 21.8648 22.2292 21.4665 22.4499L15.4928 25.6991C15.3136 25.7994 15.1296 25.8748 14.9409 25.9254C14.7513 25.9751 14.5569 26 14.3578 26Z" fill="black" fill-opacity="0.2"/>
</svg>
