<svg width="40" height="40" viewBox="0 0 40 40" fill="none" xmlns="http://www.w3.org/2000/svg">
<path d="M29.0612 36.4987C28.1572 36.3016 27.3063 35.9784 26.5964 35.3603C24.9878 33.9592 24.4055 32.2001 24.8602 30.1085C24.9213 29.8297 24.8549 29.713 24.6275 29.5816C21.1524 27.5919 17.6813 25.5955 14.2115 23.5951C14.0374 23.4945 13.931 23.4865 13.7755 23.6407C12.2932 25.1088 10.5224 25.5714 8.55753 24.9506C6.62455 24.3405 5.4653 22.9502 5.04387 20.9444C5.03324 20.8921 5.01462 20.8411 5 20.7902C5 20.2753 5 19.7605 5 19.2456C5.21537 18.0979 5.70459 17.099 6.54346 16.2771C8.51897 14.3424 11.7335 14.3464 13.6864 16.3093C13.8991 16.5225 14.0361 16.5466 14.2993 16.3938C17.7305 14.4081 21.1671 12.4332 24.6103 10.4676C24.8775 10.3147 24.9147 10.174 24.8469 9.88569C24.137 6.87968 26.1497 3.91255 29.2074 3.54116C32.4246 3.14965 34.7125 5.61667 34.9638 8.16011C35.2363 10.906 33.3007 13.4763 30.5116 13.8329C28.8684 14.0434 27.418 13.542 26.2268 12.3648C26.0354 12.1757 25.9118 12.1677 25.6884 12.2964C22.22 14.3008 18.7462 16.2973 15.2698 18.291C15.0823 18.3982 15.0238 18.5042 15.0823 18.7267C15.303 19.5821 15.3043 20.4456 15.085 21.3024C15.0305 21.5182 15.0677 21.6322 15.2618 21.7435C18.7475 23.7412 22.2306 25.743 25.7084 27.7528C25.9251 27.8775 26.042 27.8493 26.2202 27.6791C27.7145 26.2538 29.4733 25.7913 31.4289 26.4281C33.4004 27.0704 34.5716 28.5036 34.9279 30.5564C35.3812 33.1642 33.649 35.7559 31.0859 36.3887C30.9423 36.4236 30.7987 36.4638 30.6551 36.5H29.0598L29.0612 36.4987ZM26.841 8.6924C26.841 10.363 28.1824 11.7292 29.8309 11.7413C31.486 11.7534 32.8673 10.3697 32.8699 8.69776C32.8726 7.01912 31.5352 5.63678 29.8508 5.64081C27.9896 5.64483 26.7759 7.22828 26.8397 8.69374L26.841 8.6924ZM26.841 31.334C26.8384 33.022 28.201 34.4138 29.8442 34.4017C31.5006 34.3896 32.8646 33.0274 32.8699 31.3769C32.8766 29.6795 31.5193 28.2985 29.8389 28.2931C28.2024 28.2891 26.8437 29.6661 26.841 31.3327V31.334ZM13.1307 20.0648C13.1294 18.4894 11.9874 17.0146 10.1449 16.9757C8.5788 16.9422 7.14568 18.1261 7.08985 19.9562C7.04332 21.5075 8.19061 23.0051 10.0518 23.0614C11.6232 23.1084 13.055 21.895 13.1307 20.0648Z" fill="black"/>
</svg>
