<svg width="15" height="15" viewBox="0 0 15 15" fill="none" xmlns="http://www.w3.org/2000/svg">
<path fill-rule="evenodd" clip-rule="evenodd" d="M7.63886 9.2301C7.62623 9.2301 7.61438 9.2301 7.60253 9.2301C4.90643 9.2301 2.94082 10.4652 2.20954 12.6211L2.12109 12.8817L2.37143 13.0244C3.79925 13.8356 5.50504 14.2301 7.58595 14.2301H7.65308C9.73557 14.2301 11.4422 13.8356 12.87 13.0244L13.1211 12.8817L13.0326 12.6211C12.3006 10.4652 10.3358 9.2301 7.63886 9.2301Z" fill="#7C7E8A"/>
<path fill-rule="evenodd" clip-rule="evenodd" d="M7.63886 9.2301C7.62623 9.2301 7.61438 9.2301 7.60253 9.2301C4.90643 9.2301 2.94082 10.4652 2.20954 12.6211L2.12109 12.8817L2.37143 13.0244C3.79925 13.8356 5.50504 14.2301 7.58595 14.2301H7.65308C9.73557 14.2301 11.4422 13.8356 12.87 13.0244L13.1211 12.8817L13.0326 12.6211C12.3006 10.4652 10.3358 9.2301 7.63886 9.2301Z" fill="black" fill-opacity="0.2"/>
<path fill-rule="evenodd" clip-rule="evenodd" d="M7.6211 8.2301C9.55122 8.2301 11.1211 6.66006 11.1211 4.72971C11.1211 2.80015 9.55122 1.2301 7.6211 1.2301C5.69097 1.2301 4.12109 2.80015 4.12109 4.72971C4.12109 6.66006 5.69097 8.2301 7.6211 8.2301Z" fill="#7C7E8A"/>
<path fill-rule="evenodd" clip-rule="evenodd" d="M7.6211 8.2301C9.55122 8.2301 11.1211 6.66006 11.1211 4.72971C11.1211 2.80015 9.55122 1.2301 7.6211 1.2301C5.69097 1.2301 4.12109 2.80015 4.12109 4.72971C4.12109 6.66006 5.69097 8.2301 7.6211 8.2301Z" fill="black" fill-opacity="0.2"/>
</svg>
